<mxfile host="app.diagrams.net" modified="2024-05-17T02:01:27.151Z" agent="Mozilla/5.0 (Windows NT 10.0; Win64; x64) AppleWebKit/537.36 (KHTML, like Gecko) Chrome/124.0.0.0 Safari/537.36" version="24.4.3" etag="49e9cq9G57RWmaREIowq" type="github">
  <diagram name="Page-1" id="wcxV-RO2yD6FrwPAiPit">
    <mxGraphModel>
      <root>
        <mxCell id="0" />
        <mxCell id="1" parent="0" />
      </root>
    </mxGraphModel>
  </diagram>
</mxfile>
